<?xml version="1.0" encoding="UTF-8" standalone="no"?> <svg id="Layer_1" data-name="Layer 1" xmlns="http://www.w3.org/2000/svg" viewBox="0 0 128 128"><defs><style>.cls-1{fill:#2d3e50;}.cls-2{fill:#1d75b8;}</style></defs><title>v</title><path class="cls-1" d="M93.825,73.56669c-.1326-.87959-.28918-1.73513-.49407-2.5906a36.96625,36.96625,0,0,1-11.91691.12047c.09634.30124.19276.61454.27712.91577a26.74563,26.74563,0,0,1,1.02418,8.48283A27.23079,27.23079,0,0,1,81.0645,88.8937a28.71243,28.71243,0,0,1-1.75918,3.80761,27.31464,27.31464,0,0,1-12.399,11.48321,26.03138,26.03138,0,0,1-3.92815,1.47,27.13032,27.13032,0,0,1-8.49489,1.02425A27.283,27.283,0,0,1,30.794,90.86983a26.96321,26.96321,0,0,1-1.47008-3.96433,27.37452,27.37452,0,0,1-1.01212-8.47076,26.88392,26.88392,0,0,1,3.43408-12.21822,27.37392,27.37392,0,0,1,12.35074-11.447A26.83258,26.83258,0,0,1,48.085,53.27536c.51812-.14459,1.03624-.27719,1.56642-.39765-.024-4.51856-.06023-8.60337-.07229-11.71208A38.71623,38.71623,0,0,0,35.03537,46.5879c-.54217-.46995-1.07235-.92784-1.61459-1.37366-1.48214-1.24113-2.97627-2.47013-4.51856-3.639l-9.15767,8.49489c1.0483,1.62673,2.15691,3.20521,3.28957,4.77163.40964.57835.81936,1.14472,1.24106,1.711A38.55946,38.55946,0,0,0,17.75642,70.6989c-.69889.06031-1.39778.10848-2.08461.18077-1.92789.15665-3.84372.34941-5.77169.61454L9.43017,83.97748c1.90384.39765,3.79562.735,5.69947,1.0483.68683.12054,1.38565.22894,2.07248.32536a38.46065,38.46065,0,0,0,5.42228,14.59193c-.45789.53018-.92784,1.07242-1.37366,1.61467-1.24106,1.48207-2.45807,2.97619-3.62684,4.51856l8.49489,9.16966c1.62665-1.0483,3.2172-2.15691,4.78362-3.2775.57843-.40964,1.14472-.83142,1.71108-1.25312a38.53076,38.53076,0,0,0,14.122,6.50676c.04817.69882.10848,1.39771.16871,2.0966.16871,1.92789.36147,3.8438.63859,5.75963l12.48334.482c.40964-1.90384.74706-3.79562,1.06029-5.69939.12054-.69889.22894-1.38572.33742-2.08461a38.60707,38.60707,0,0,0,14.56789-5.41022c.53011.45789,1.07235.91577,1.61459,1.37366,1.48207,1.22907,2.97627,2.45807,4.51856,3.62691l9.16966-8.495c-1.0483-1.63872-2.15684-3.2172-3.27743-4.78362-.40972-.57835-.83142-1.14472-1.2532-1.72307a38.4769,38.4769,0,0,0,6.50676-14.11c.69889-.06023,1.39778-.1084,2.0966-.1807,1.9159-.16871,3.8438-.36154,5.7597-.6266l.48194-12.48327c-1.90377-.40972-3.80761-.74706-5.69939-1.06036C95.21061,73.78357,94.51179,73.67516,93.825,73.56669Z"/><path class="cls-2" d="M117.98957,27.96853a31.52439,31.52439,0,0,0-62.45474,7.06357c.056,1.633.28932,43.68542.28932,43.68542L76.4643,63.67129a31.52887,31.52887,0,0,0,41.52527-35.70277ZM89.62337,52.79364a3.5961,3.5961,0,0,1-6.17015-2.496,3.57128,3.57128,0,0,1,3.54807-3.58543,3.58848,3.58848,0,0,1,2.62208,6.08146Zm3.856-20.21087-1.11037.9891c-1.05213.9471-2.16485,1.92216-2.28848,3.55513-.08862,1.20135-.15157,2.454-.15157,3.8396a.71274.71274,0,0,1-.1237.5482c-.02559.03037-.11892.14-.57615.1237-.28925-.014-.59483-.014-.88408-.014H86.82177c-.87018,0-1.7683,0-2.6384.014-.38258,0-.48753-.10737-.48753-.4876-.077-2.6826-.06067-5.73381.92835-7.91036a9.50782,9.50782,0,0,1,3.41518-3.62743,13.05345,13.05345,0,0,0,2.958-2.71526c1.47662-2.02482,1.20135-3.62743.69977-4.62116a5.38528,5.38528,0,0,0-4.78678-2.58935,5.73029,5.73029,0,0,0-5.59158,4.34588c-.27528.88172-.35228.94247-.68815.94247a6.30989,6.30989,0,0,1-.73243-.07237c-1.4767-.20063-2.972-.38258-4.465-.56445-.53423-.0631-.61123-.25895-.56453-.65785.59483-6.31018,6.723-9.60166,12.47092-9.60166A13.00053,13.00053,0,0,1,95.98,17.06528a9.16732,9.16732,0,0,1,3.24956,6.814C99.21333,27.52535,96.2086,30.173,93.47937,32.58277Z"/></svg>