<?xml version="1.0" encoding="UTF-8" standalone="no"?> <svg width="60" height="60" viewBox="0 0 60 60" fill="none" xmlns="http://www.w3.org/2000/svg">
<path d="M52.769 60H22.2383C20.8748 59.9986 19.5675 59.4563 18.6033 58.4922C17.6391 57.5281 17.0968 56.2209 17.0952 54.8574V40.4951C17.0952 40.2299 17.2006 39.9755 17.3881 39.788C17.5756 39.6005 17.83 39.4951 18.0952 39.4951C18.3604 39.4951 18.6148 39.6005 18.8023 39.788C18.9899 39.9755 19.0952 40.2299 19.0952 40.4951V54.8574C19.0963 55.6906 19.4278 56.4894 20.017 57.0785C20.6063 57.6676 21.4051 57.999 22.2383 58H52.769C53.6022 57.999 54.401 57.6676 54.9902 57.0785C55.5794 56.4894 55.911 55.6906 55.9121 54.8574V5.14307C55.9111 4.30978 55.5796 3.51092 54.9904 2.92169C54.4012 2.33247 53.6023 2.00101 52.769 2H22.2383C21.405 2.00101 20.6061 2.33247 20.0169 2.92169C19.4277 3.51092 19.0962 4.30978 19.0952 5.14307V19.4858C19.0952 19.7511 18.9899 20.0054 18.8023 20.1929C18.6148 20.3805 18.3604 20.4858 18.0952 20.4858C17.83 20.4858 17.5756 20.3805 17.3881 20.1929C17.2006 20.0054 17.0952 19.7511 17.0952 19.4858V5.14307C17.0967 3.77951 17.6391 2.47224 18.6033 1.50806C19.5674 0.543875 20.8747 0.0015272 22.2383 0L52.769 0C54.1326 0.0015272 55.4398 0.543875 56.404 1.50806C57.3682 2.47224 57.9105 3.77951 57.9121 5.14307V54.8574C57.9105 56.2209 57.3682 57.5281 56.404 58.4922C55.4398 59.4563 54.1325 59.9986 52.769 60ZM32.1309 29.9971C32.1309 29.7319 32.0255 29.4775 31.838 29.29C31.6504 29.1024 31.3961 28.9971 31.1309 28.9971H3.08789C2.82267 28.9971 2.56832 29.1024 2.38078 29.29C2.19325 29.4775 2.08789 29.7319 2.08789 29.9971C2.08789 30.2623 2.19325 30.5166 2.38078 30.7042C2.56832 30.8917 2.82267 30.9971 3.08789 30.9971H31.1309C31.3961 30.9971 31.6504 30.8917 31.838 30.7042C32.0255 30.5166 32.1309 30.2623 32.1309 29.9971ZM31.8379 39.2686L37.4721 33.6338C38.4366 32.6693 38.9785 31.3611 38.9785 29.9971C38.9785 28.633 38.4366 27.3249 37.4721 26.3603L31.8379 20.7261C31.745 20.6332 31.6348 20.5596 31.5135 20.5093C31.3922 20.4591 31.2621 20.4332 31.1308 20.4332C30.9995 20.4332 30.8695 20.4591 30.7482 20.5093C30.6269 20.5596 30.5166 20.6332 30.4238 20.7261C30.3309 20.8189 30.2573 20.9292 30.207 21.0505C30.1568 21.1718 30.1309 21.3018 30.1309 21.4331C30.1309 21.5644 30.1568 21.6944 30.207 21.8158C30.2573 21.9371 30.331 22.0473 30.4238 22.1401L36.0581 27.7744C36.6467 28.3644 36.9773 29.1637 36.9773 29.9971C36.9773 30.8304 36.6467 31.6298 36.0581 32.2197L30.4238 37.8545C30.331 37.9473 30.2573 38.0576 30.2071 38.1789C30.1568 38.3002 30.1309 38.4302 30.1309 38.5615C30.1309 38.6928 30.1568 38.8228 30.2071 38.9442C30.2573 39.0655 30.331 39.1757 30.4238 39.2686C30.5166 39.3614 30.6269 39.435 30.7482 39.4853C30.8695 39.5355 30.9995 39.5614 31.1308 39.5614C31.2621 39.5614 31.3922 39.5355 31.5135 39.4853C31.6348 39.435 31.745 39.3614 31.8379 39.2686V39.2686Z" fill="black"/>
</svg>
